<mxfile host="app.diagrams.net" modified="2021-06-05T19:11:28.053Z" agent="5.0 (Windows)" etag="OPyv9rbw23UIjs4uQlk5" version="14.7.6" type="github">
  <diagram id="C5RBs43oDa-KdzZeNtuy" name="Page-1">
    <mxGraphModel dx="1422" dy="905" grid="0" gridSize="10" guides="1" tooltips="1" connect="1" arrows="1" fold="1" page="1" pageScale="1" pageWidth="827" pageHeight="1169" math="0" shadow="0">
      <root>
        <mxCell id="WIyWlLk6GJQsqaUBKTNV-0" />
        <mxCell id="WIyWlLk6GJQsqaUBKTNV-1" parent="WIyWlLk6GJQsqaUBKTNV-0" />
        <mxCell id="ReJE5lU1sMP6MGlXTFx2-0" value="&lt;h2&gt;Convert meetings excel to dict&lt;/h2&gt;" style="text;html=1;align=center;verticalAlign=middle;resizable=0;points=[];autosize=1;strokeColor=none;" parent="WIyWlLk6GJQsqaUBKTNV-1" vertex="1">
          <mxGeometry x="274" y="5" width="280" height="50" as="geometry" />
        </mxCell>
        <mxCell id="ReJE5lU1sMP6MGlXTFx2-1" value="Call main from script/tool" style="ellipse;whiteSpace=wrap;html=1;gradientColor=#97d077;fillColor=#d5e8d4;strokeColor=#82b366;fontStyle=1;fontSize=11;" parent="WIyWlLk6GJQsqaUBKTNV-1" vertex="1">
          <mxGeometry x="354" y="70" width="120" height="50" as="geometry" />
        </mxCell>
        <mxCell id="ReJE5lU1sMP6MGlXTFx2-100" value="" style="edgeStyle=none;rounded=0;orthogonalLoop=1;jettySize=auto;html=1;strokeColor=#009900;strokeWidth=2;" parent="WIyWlLk6GJQsqaUBKTNV-1" target="ReJE5lU1sMP6MGlXTFx2-106" edge="1">
          <mxGeometry relative="1" as="geometry">
            <mxPoint x="416.0899999999999" y="120" as="sourcePoint" />
          </mxGeometry>
        </mxCell>
        <mxCell id="ReJE5lU1sMP6MGlXTFx2-102" style="edgeStyle=orthogonalEdgeStyle;rounded=1;orthogonalLoop=1;jettySize=auto;html=1;exitX=0;exitY=0.5;exitDx=0;exitDy=0;shadow=0;strokeColor=#009900;fillColor=#FFF700;strokeWidth=2;" parent="WIyWlLk6GJQsqaUBKTNV-1" source="ReJE5lU1sMP6MGlXTFx2-106" target="ReJE5lU1sMP6MGlXTFx2-108" edge="1">
          <mxGeometry relative="1" as="geometry">
            <mxPoint x="346.09" y="275" as="targetPoint" />
            <Array as="points">
              <mxPoint x="256.09" y="185" />
              <mxPoint x="256.09" y="272" />
            </Array>
          </mxGeometry>
        </mxCell>
        <mxCell id="ReJE5lU1sMP6MGlXTFx2-103" value="&lt;font color=&quot;#009900&quot;&gt;NO&lt;br&gt;&lt;span style=&quot;font-size: 10px ; background-color: rgb(248 , 249 , 250)&quot;&gt;Use default xlsx/timezone&lt;/span&gt;&lt;/font&gt;&lt;span style=&quot;font-size: 10px ; background-color: rgb(248 , 249 , 250)&quot;&gt;&lt;br&gt;&lt;/span&gt;" style="edgeLabel;html=1;align=center;verticalAlign=middle;resizable=0;points=[];" parent="ReJE5lU1sMP6MGlXTFx2-102" vertex="1" connectable="0">
          <mxGeometry x="-0.5392" y="2" relative="1" as="geometry">
            <mxPoint x="-49" y="38" as="offset" />
          </mxGeometry>
        </mxCell>
        <mxCell id="ReJE5lU1sMP6MGlXTFx2-104" style="edgeStyle=orthogonalEdgeStyle;rounded=1;orthogonalLoop=1;jettySize=auto;html=1;exitX=1;exitY=0.5;exitDx=0;exitDy=0;entryX=1;entryY=0.5;entryDx=0;entryDy=0;strokeColor=#0066CC;strokeWidth=2;" parent="WIyWlLk6GJQsqaUBKTNV-1" source="ReJE5lU1sMP6MGlXTFx2-106" target="ReJE5lU1sMP6MGlXTFx2-108" edge="1">
          <mxGeometry relative="1" as="geometry">
            <mxPoint x="466.09" y="295" as="targetPoint" />
            <Array as="points">
              <mxPoint x="576.09" y="185" />
              <mxPoint x="576.09" y="272" />
            </Array>
          </mxGeometry>
        </mxCell>
        <mxCell id="ReJE5lU1sMP6MGlXTFx2-105" value="&lt;font color=&quot;#004c99&quot;&gt;YES&lt;br&gt;&lt;span style=&quot;font-size: 10px ; background-color: rgb(248 , 249 , 250)&quot;&gt;Use passed parameters&lt;/span&gt;&lt;/font&gt;" style="edgeLabel;html=1;align=center;verticalAlign=middle;resizable=0;points=[];" parent="ReJE5lU1sMP6MGlXTFx2-104" vertex="1" connectable="0">
          <mxGeometry x="-0.4838" y="2" relative="1" as="geometry">
            <mxPoint x="33" y="42" as="offset" />
          </mxGeometry>
        </mxCell>
        <mxCell id="ReJE5lU1sMP6MGlXTFx2-106" value="Pass params?" style="rhombus;whiteSpace=wrap;html=1;fillColor=#dae8fc;strokeColor=#6c8ebf;fontStyle=1;fontSize=11;" parent="WIyWlLk6GJQsqaUBKTNV-1" vertex="1">
          <mxGeometry x="366.09" y="145" width="100" height="80" as="geometry" />
        </mxCell>
        <mxCell id="ReJE5lU1sMP6MGlXTFx2-180" style="edgeStyle=orthogonalEdgeStyle;rounded=0;orthogonalLoop=1;jettySize=auto;html=1;entryX=0.5;entryY=0;entryDx=0;entryDy=0;strokeWidth=2;" parent="WIyWlLk6GJQsqaUBKTNV-1" target="ReJE5lU1sMP6MGlXTFx2-147" edge="1">
          <mxGeometry relative="1" as="geometry">
            <mxPoint x="416.16666666666674" y="296" as="sourcePoint" />
          </mxGeometry>
        </mxCell>
        <mxCell id="ReJE5lU1sMP6MGlXTFx2-212" value="" style="edgeStyle=orthogonalEdgeStyle;rounded=1;orthogonalLoop=1;jettySize=auto;html=1;strokeWidth=2;" parent="WIyWlLk6GJQsqaUBKTNV-1" source="ReJE5lU1sMP6MGlXTFx2-108" target="ReJE5lU1sMP6MGlXTFx2-147" edge="1">
          <mxGeometry relative="1" as="geometry" />
        </mxCell>
        <mxCell id="ReJE5lU1sMP6MGlXTFx2-108" value="Read file to dataframe" style="rounded=1;whiteSpace=wrap;html=1;fontSize=11;glass=0;strokeWidth=1;shadow=0;fontStyle=1" parent="WIyWlLk6GJQsqaUBKTNV-1" vertex="1">
          <mxGeometry x="356.09" y="252" width="120" height="40" as="geometry" />
        </mxCell>
        <mxCell id="ReJE5lU1sMP6MGlXTFx2-207" value="&lt;font color=&quot;#0066cc&quot;&gt;YES&lt;/font&gt;" style="edgeStyle=orthogonalEdgeStyle;rounded=1;orthogonalLoop=1;jettySize=auto;html=1;strokeWidth=2;exitX=0.5;exitY=1;exitDx=0;exitDy=0;strokeColor=#0066CC;entryX=0.5;entryY=0;entryDx=0;entryDy=0;" parent="WIyWlLk6GJQsqaUBKTNV-1" source="ReJE5lU1sMP6MGlXTFx2-121" target="ReJE5lU1sMP6MGlXTFx2-211" edge="1">
          <mxGeometry relative="1" as="geometry">
            <mxPoint x="416" y="898" as="targetPoint" />
            <mxPoint x="416" y="849" as="sourcePoint" />
            <Array as="points" />
            <mxPoint as="offset" />
          </mxGeometry>
        </mxCell>
        <mxCell id="ReJE5lU1sMP6MGlXTFx2-121" value="Last entry&lt;br style=&quot;font-size: 11px;&quot;&gt;in loop?" style="rhombus;whiteSpace=wrap;html=1;fillColor=#dae8fc;strokeColor=#6c8ebf;fontStyle=1;fontSize=11;" parent="WIyWlLk6GJQsqaUBKTNV-1" vertex="1">
          <mxGeometry x="366.09" y="780" width="100" height="80" as="geometry" />
        </mxCell>
        <mxCell id="ReJE5lU1sMP6MGlXTFx2-182" style="edgeStyle=orthogonalEdgeStyle;rounded=0;orthogonalLoop=1;jettySize=auto;html=1;entryX=0.5;entryY=0;entryDx=0;entryDy=0;strokeWidth=2;" parent="WIyWlLk6GJQsqaUBKTNV-1" source="ReJE5lU1sMP6MGlXTFx2-145" target="ReJE5lU1sMP6MGlXTFx2-168" edge="1">
          <mxGeometry relative="1" as="geometry">
            <mxPoint x="416.24" y="439.12" as="targetPoint" />
            <Array as="points" />
          </mxGeometry>
        </mxCell>
        <mxCell id="ReJE5lU1sMP6MGlXTFx2-145" value="Get invitees per meeting" style="rounded=1;whiteSpace=wrap;html=1;fontSize=11;glass=0;strokeWidth=1;shadow=0;fontStyle=1" parent="WIyWlLk6GJQsqaUBKTNV-1" vertex="1">
          <mxGeometry x="356.09" y="383" width="120" height="40" as="geometry" />
        </mxCell>
        <mxCell id="ReJE5lU1sMP6MGlXTFx2-181" style="edgeStyle=orthogonalEdgeStyle;rounded=0;orthogonalLoop=1;jettySize=auto;html=1;entryX=0.5;entryY=0;entryDx=0;entryDy=0;strokeWidth=2;" parent="WIyWlLk6GJQsqaUBKTNV-1" target="ReJE5lU1sMP6MGlXTFx2-145" edge="1">
          <mxGeometry relative="1" as="geometry">
            <mxPoint x="416.1005586592179" y="355" as="sourcePoint" />
            <mxPoint x="416" y="375" as="targetPoint" />
          </mxGeometry>
        </mxCell>
        <mxCell id="ReJE5lU1sMP6MGlXTFx2-147" value="Parse date/time columns" style="rounded=1;whiteSpace=wrap;html=1;fontSize=11;glass=0;strokeWidth=1;shadow=0;fontStyle=1" parent="WIyWlLk6GJQsqaUBKTNV-1" vertex="1">
          <mxGeometry x="356.09" y="316" width="120" height="40" as="geometry" />
        </mxCell>
        <mxCell id="ReJE5lU1sMP6MGlXTFx2-160" style="edgeStyle=orthogonalEdgeStyle;rounded=1;orthogonalLoop=1;jettySize=auto;html=1;exitX=0;exitY=0.5;exitDx=0;exitDy=0;shadow=0;strokeColor=#009900;fillColor=#FFF700;entryX=0;entryY=0.5;entryDx=0;entryDy=0;strokeWidth=2;" parent="WIyWlLk6GJQsqaUBKTNV-1" source="ReJE5lU1sMP6MGlXTFx2-162" target="ReJE5lU1sMP6MGlXTFx2-168" edge="1">
          <mxGeometry y="10" as="geometry">
            <mxPoint x="320" y="490" as="targetPoint" />
          </mxGeometry>
        </mxCell>
        <mxCell id="ReJE5lU1sMP6MGlXTFx2-161" value="&lt;h5&gt;&lt;font style=&quot;font-weight: normal&quot; color=&quot;#009900&quot;&gt;&lt;font style=&quot;font-size: 12px&quot;&gt;NO&lt;/font&gt;&lt;br&gt;&lt;font style=&quot;font-size: 10px&quot;&gt;&amp;nbsp;Go to next meeting&amp;nbsp;&lt;br&gt; in loop&lt;/font&gt;&lt;/font&gt;&lt;/h5&gt;" style="edgeLabel;html=1;align=center;verticalAlign=middle;resizable=0;points=[];" parent="ReJE5lU1sMP6MGlXTFx2-160" vertex="1" connectable="0">
          <mxGeometry x="-0.7177" y="1" relative="1" as="geometry">
            <mxPoint x="-25" y="-1" as="offset" />
          </mxGeometry>
        </mxCell>
        <mxCell id="ReJE5lU1sMP6MGlXTFx2-162" value="Last entry&lt;br style=&quot;font-size: 11px;&quot;&gt;in loop?" style="rhombus;whiteSpace=wrap;html=1;fillColor=#dae8fc;strokeColor=#6c8ebf;fontStyle=1;fontSize=11;" parent="WIyWlLk6GJQsqaUBKTNV-1" vertex="1">
          <mxGeometry x="366.09" y="555" width="100" height="80" as="geometry" />
        </mxCell>
        <mxCell id="ReJE5lU1sMP6MGlXTFx2-189" value="" style="group" parent="WIyWlLk6GJQsqaUBKTNV-1" vertex="1" connectable="0">
          <mxGeometry x="166.59" y="450" width="499" height="72" as="geometry" />
        </mxCell>
        <mxCell id="ReJE5lU1sMP6MGlXTFx2-168" value="" style="rounded=1;whiteSpace=wrap;html=1;shadow=0;strokeColor=#FFFFFF;fillColor=#FFB70F;" parent="ReJE5lU1sMP6MGlXTFx2-189" vertex="1">
          <mxGeometry width="499" height="72" as="geometry" />
        </mxCell>
        <mxCell id="ReJE5lU1sMP6MGlXTFx2-169" value="&lt;h5&gt;&amp;nbsp;Use meeting&lt;br&gt;&amp;nbsp;name as &lt;br&gt;key&lt;/h5&gt;" style="shape=step;perimeter=stepPerimeter;whiteSpace=wrap;html=1;fixedSize=1;shadow=0;strokeColor=#000000;fillColor=#FFFFFF;" parent="ReJE5lU1sMP6MGlXTFx2-189" vertex="1">
          <mxGeometry x="117.9084249084249" y="9" width="97.992673992674" height="54.00000000000001" as="geometry" />
        </mxCell>
        <mxCell id="ReJE5lU1sMP6MGlXTFx2-171" value="&lt;h5&gt;Find all &lt;br&gt;invitees&lt;/h5&gt;" style="shape=step;perimeter=stepPerimeter;whiteSpace=wrap;html=1;fixedSize=1;shadow=0;strokeColor=#000000;fillColor=#FFFFFF;" parent="ReJE5lU1sMP6MGlXTFx2-189" vertex="1">
          <mxGeometry x="209.66520146520148" y="9" width="97.992673992674" height="54.00000000000001" as="geometry" />
        </mxCell>
        <mxCell id="ReJE5lU1sMP6MGlXTFx2-172" value="&lt;h5&gt;&amp;nbsp; Create list of&lt;br&gt;invitees&lt;/h5&gt;" style="shape=step;perimeter=stepPerimeter;whiteSpace=wrap;html=1;fixedSize=1;shadow=0;strokeColor=#000000;fillColor=#FFFFFF;" parent="ReJE5lU1sMP6MGlXTFx2-189" vertex="1">
          <mxGeometry x="302.0087545787545" y="9" width="97.992673992674" height="54.00000000000001" as="geometry" />
        </mxCell>
        <mxCell id="ReJE5lU1sMP6MGlXTFx2-186" value="&lt;h5&gt;Add list as&lt;br&gt;&amp;nbsp; &amp;nbsp; meeting&lt;br&gt;value&lt;/h5&gt;" style="shape=step;perimeter=stepPerimeter;whiteSpace=wrap;html=1;fixedSize=1;shadow=0;strokeColor=#b85450;fillColor=#f8cecc;" parent="ReJE5lU1sMP6MGlXTFx2-189" vertex="1">
          <mxGeometry x="389.99875457875453" y="9" width="97.992673992674" height="54.00000000000001" as="geometry" />
        </mxCell>
        <mxCell id="ReJE5lU1sMP6MGlXTFx2-188" value="&lt;h5&gt;&lt;font style=&quot;font-size: 9.96px&quot;&gt;Loop over&lt;br&gt;unique&lt;br&gt;meetings&lt;/font&gt;&lt;br&gt;&lt;/h5&gt;" style="shape=step;perimeter=stepPerimeter;whiteSpace=wrap;html=1;fixedSize=1;shadow=0;strokeColor=#82b366;fillColor=#d5e8d4;" parent="ReJE5lU1sMP6MGlXTFx2-189" vertex="1">
          <mxGeometry x="19.918424908424925" y="9" width="97.992673992674" height="54.00000000000001" as="geometry" />
        </mxCell>
        <mxCell id="ReJE5lU1sMP6MGlXTFx2-199" style="edgeStyle=orthogonalEdgeStyle;rounded=1;orthogonalLoop=1;jettySize=auto;html=1;exitX=0;exitY=0.5;exitDx=0;exitDy=0;shadow=0;strokeColor=#009900;fillColor=#FFF700;entryX=0;entryY=0.5;entryDx=0;entryDy=0;strokeWidth=2;" parent="WIyWlLk6GJQsqaUBKTNV-1" source="ReJE5lU1sMP6MGlXTFx2-121" target="ReJE5lU1sMP6MGlXTFx2-192" edge="1">
          <mxGeometry x="2.26" y="214" as="geometry">
            <mxPoint x="168.85000000000002" y="690" as="targetPoint" />
            <mxPoint x="376.2600000000001" y="799" as="sourcePoint" />
          </mxGeometry>
        </mxCell>
        <mxCell id="ReJE5lU1sMP6MGlXTFx2-200" value="&lt;h5&gt;&lt;font style=&quot;font-weight: normal&quot; color=&quot;#009900&quot;&gt;&lt;font style=&quot;font-size: 12px&quot;&gt;NO&lt;/font&gt;&lt;br&gt;&lt;font style=&quot;font-size: 10px&quot;&gt;Go to next meeting&lt;br&gt; in loop&lt;/font&gt;&lt;/font&gt;&lt;/h5&gt;" style="edgeLabel;html=1;align=center;verticalAlign=middle;resizable=0;points=[];" parent="ReJE5lU1sMP6MGlXTFx2-199" vertex="1" connectable="0">
          <mxGeometry x="-0.7177" y="1" relative="1" as="geometry">
            <mxPoint x="-25" y="-1" as="offset" />
          </mxGeometry>
        </mxCell>
        <mxCell id="ReJE5lU1sMP6MGlXTFx2-203" style="edgeStyle=orthogonalEdgeStyle;rounded=1;orthogonalLoop=1;jettySize=auto;html=1;entryX=0.5;entryY=0;entryDx=0;entryDy=0;strokeColor=#000000;strokeWidth=2;" parent="WIyWlLk6GJQsqaUBKTNV-1" source="ReJE5lU1sMP6MGlXTFx2-168" target="ReJE5lU1sMP6MGlXTFx2-162" edge="1">
          <mxGeometry relative="1" as="geometry" />
        </mxCell>
        <mxCell id="ReJE5lU1sMP6MGlXTFx2-206" style="edgeStyle=orthogonalEdgeStyle;rounded=1;orthogonalLoop=1;jettySize=auto;html=1;exitX=0.5;exitY=1;exitDx=0;exitDy=0;entryX=0.5;entryY=0;entryDx=0;entryDy=0;strokeColor=#000000;strokeWidth=2;" parent="WIyWlLk6GJQsqaUBKTNV-1" source="ReJE5lU1sMP6MGlXTFx2-192" target="ReJE5lU1sMP6MGlXTFx2-121" edge="1">
          <mxGeometry relative="1" as="geometry" />
        </mxCell>
        <mxCell id="ReJE5lU1sMP6MGlXTFx2-198" value="&lt;font color=&quot;#004c99&quot;&gt;YES&lt;/font&gt;" style="edgeStyle=orthogonalEdgeStyle;rounded=1;orthogonalLoop=1;jettySize=auto;html=1;strokeColor=#0066CC;strokeWidth=2;exitX=0.5;exitY=1;exitDx=0;exitDy=0;entryX=0.5;entryY=0;entryDx=0;entryDy=0;" parent="WIyWlLk6GJQsqaUBKTNV-1" source="ReJE5lU1sMP6MGlXTFx2-162" target="ReJE5lU1sMP6MGlXTFx2-192" edge="1">
          <mxGeometry x="-0.1749" relative="1" as="geometry">
            <mxPoint x="415.5900000000001" y="634" as="sourcePoint" />
            <mxPoint x="415.59" y="669" as="targetPoint" />
            <mxPoint as="offset" />
          </mxGeometry>
        </mxCell>
        <mxCell id="ReJE5lU1sMP6MGlXTFx2-209" value="" style="group" parent="WIyWlLk6GJQsqaUBKTNV-1" vertex="1" connectable="0">
          <mxGeometry x="165.09" y="680" width="502" height="72" as="geometry" />
        </mxCell>
        <mxCell id="ReJE5lU1sMP6MGlXTFx2-118" style="edgeStyle=none;rounded=0;orthogonalLoop=1;jettySize=auto;html=1;entryX=0;entryY=0.5;entryDx=0;entryDy=0;strokeWidth=2;" parent="ReJE5lU1sMP6MGlXTFx2-209" edge="1">
          <mxGeometry x="-83.5" y="-127" as="geometry">
            <mxPoint x="166.08999999999992" as="sourcePoint" />
            <mxPoint x="166.08999999999992" as="targetPoint" />
          </mxGeometry>
        </mxCell>
        <mxCell id="ReJE5lU1sMP6MGlXTFx2-192" value="" style="rounded=1;whiteSpace=wrap;html=1;shadow=0;strokeColor=#FFFFFF;fillColor=#FFB70F;" parent="ReJE5lU1sMP6MGlXTFx2-209" vertex="1">
          <mxGeometry width="502" height="72" as="geometry" />
        </mxCell>
        <mxCell id="ReJE5lU1sMP6MGlXTFx2-193" value="&lt;h5&gt;&amp;nbsp;Use meeting&lt;br&gt;&amp;nbsp;name as &lt;br&gt;key&lt;/h5&gt;" style="shape=step;perimeter=stepPerimeter;whiteSpace=wrap;html=1;fixedSize=1;shadow=0;strokeColor=#000000;fillColor=#FFFFFF;" parent="ReJE5lU1sMP6MGlXTFx2-209" vertex="1">
          <mxGeometry x="117.90842490842488" y="9" width="97.992673992674" height="54.00000000000001" as="geometry" />
        </mxCell>
        <mxCell id="ReJE5lU1sMP6MGlXTFx2-194" value="&lt;h5&gt;Create dict&lt;br&gt;per meeting&lt;/h5&gt;" style="shape=step;perimeter=stepPerimeter;whiteSpace=wrap;html=1;fixedSize=1;shadow=0;strokeColor=#000000;fillColor=#FFFFFF;" parent="ReJE5lU1sMP6MGlXTFx2-209" vertex="1">
          <mxGeometry x="209.66520146520145" y="9" width="97.992673992674" height="54.00000000000001" as="geometry" />
        </mxCell>
        <mxCell id="ReJE5lU1sMP6MGlXTFx2-195" value="&lt;h5&gt;&amp;nbsp; &amp;nbsp;Add invitees&lt;br&gt;&lt;/h5&gt;" style="shape=step;perimeter=stepPerimeter;whiteSpace=wrap;html=1;fixedSize=1;shadow=0;" parent="ReJE5lU1sMP6MGlXTFx2-209" vertex="1">
          <mxGeometry x="302.0087545787545" y="9" width="97.992673992674" height="54.00000000000001" as="geometry" />
        </mxCell>
        <mxCell id="ReJE5lU1sMP6MGlXTFx2-197" value="&lt;h5&gt;&lt;font style=&quot;font-size: 9.96px&quot;&gt;Loop over&lt;br&gt;unique&lt;br&gt;meetings&lt;/font&gt;&lt;br&gt;&lt;/h5&gt;" style="shape=step;perimeter=stepPerimeter;whiteSpace=wrap;html=1;fixedSize=1;shadow=0;strokeColor=#82b366;fillColor=#d5e8d4;" parent="ReJE5lU1sMP6MGlXTFx2-209" vertex="1">
          <mxGeometry x="19.918424908424925" y="9" width="97.992673992674" height="54.00000000000001" as="geometry" />
        </mxCell>
        <mxCell id="ReJE5lU1sMP6MGlXTFx2-208" value="&lt;h5&gt;Add dict as&lt;br&gt;meeting&lt;br&gt;value&lt;/h5&gt;" style="shape=step;perimeter=stepPerimeter;whiteSpace=wrap;html=1;fixedSize=1;shadow=0;strokeColor=#b85450;fillColor=#f8cecc;" parent="ReJE5lU1sMP6MGlXTFx2-209" vertex="1">
          <mxGeometry x="394.0087545787545" y="9" width="97.992673992674" height="54.00000000000001" as="geometry" />
        </mxCell>
        <mxCell id="ReJE5lU1sMP6MGlXTFx2-211" value="Return nested&lt;br&gt;meeting dict" style="ellipse;whiteSpace=wrap;html=1;gradientColor=#ea6b66;fillColor=#f8cecc;strokeColor=#b85450;" parent="WIyWlLk6GJQsqaUBKTNV-1" vertex="1">
          <mxGeometry x="356.09" y="908" width="120" height="50" as="geometry" />
        </mxCell>
      </root>
    </mxGraphModel>
  </diagram>
</mxfile>
